<svg width="111" height="31" viewBox="0 0 111 31" fill="none" xmlns="http://www.w3.org/2000/svg">
<g clip-path="url(#clip0_2964_27013)">
<path d="M38.707 15.7194C39.3164 16.031 39.9653 16.2583 40.636 16.395C41.4781 16.5889 42.3394 16.6864 43.2035 16.6856C44.0039 16.6872 44.8004 16.5734 45.5683 16.3477C46.2409 16.1577 46.8706 15.84 47.423 15.412C47.9259 15.0175 48.3383 14.5199 48.6325 13.9525C48.9308 13.349 49.0813 12.6832 49.0716 12.01C49.0815 11.1658 48.8079 10.3426 48.2946 9.67221C47.7789 8.99655 46.9174 8.46165 45.7102 8.06751L43.3454 7.30739C42.6778 7.13765 42.053 6.83043 41.511 6.40538C41.3504 6.25379 41.2232 6.07029 41.1377 5.86667C41.0522 5.66305 41.0102 5.44379 41.0144 5.22297C40.9886 4.92072 41.0492 4.61736 41.1892 4.34822C41.3291 4.07909 41.5427 3.85524 41.8049 3.70274C42.4908 3.35452 43.2562 3.19259 44.0244 3.23315C45.1291 3.21677 46.2245 3.43678 47.2372 3.87841C47.4361 3.98735 47.654 4.0573 47.8791 4.08448C48.1291 4.08448 48.2575 3.90543 48.2575 3.55409V2.78046C48.267 2.58525 48.2163 2.39182 48.1122 2.22641C47.9771 2.05826 47.8093 1.91921 47.619 1.81764C47.3949 1.7004 47.1608 1.60318 46.9197 1.5271C46.6257 1.42913 46.3082 1.3413 45.9703 1.2636C45.6137 1.18074 45.2528 1.11758 44.8893 1.07441C44.5152 1.02473 44.1383 0.999897 43.7609 1.00009C43.0491 0.996656 42.3405 1.09448 41.6562 1.29062C41.0296 1.46911 40.441 1.7611 39.9198 2.15209C39.4311 2.52356 39.024 2.99159 38.7239 3.52706C38.4105 4.09762 38.2543 4.74116 38.2712 5.39189C38.2712 6.27027 38.5636 7.12366 39.1022 7.81752C39.6563 8.55624 40.547 9.11929 41.7745 9.50667L44.1967 10.2668C44.8183 10.4299 45.3954 10.73 45.8859 11.1452C46.035 11.3001 46.1516 11.4834 46.2287 11.6842C46.3059 11.8849 46.3421 12.0991 46.3352 12.314C46.346 12.6296 46.2717 12.9423 46.1202 13.2192C45.9686 13.4962 45.7453 13.7273 45.4737 13.8883C44.8994 14.26 44.0886 14.4424 43.038 14.4424C42.3706 14.4435 41.7049 14.3756 41.0515 14.2397C40.4183 14.1128 39.8008 13.9168 39.2103 13.6552C39.0347 13.5775 38.8928 13.5201 38.7881 13.4796C38.6895 13.4435 38.5856 13.4241 38.4806 13.4221C38.2273 13.4221 38.1023 13.5978 38.1023 13.9492V14.7937C38.0946 14.9938 38.1494 15.1914 38.2589 15.359C38.3685 15.5267 38.5274 15.6561 38.7137 15.7295" fill="#262F3E"/>
<path d="M10.4815 7.61485C9.89643 7.5292 9.30599 7.48517 8.71467 7.4831C7.00299 7.4831 5.6404 7.91665 4.62691 8.78375C4.12995 9.20324 3.73485 9.73021 3.47148 10.3248C3.20811 10.9195 3.08336 11.5662 3.10667 12.2161C3.07771 12.8071 3.17209 13.3977 3.3838 13.9502C3.59551 14.5028 3.91992 15.0052 4.33638 15.4255C5.15393 16.2228 6.26314 16.6226 7.66401 16.6248C8.60377 16.6395 9.53441 16.4389 10.3847 16.0383C11.2349 15.6378 11.9822 15.048 12.5693 14.314C12.745 14.689 12.9071 15.0134 13.0828 15.2938C13.2479 15.5764 13.4489 15.8364 13.6808 16.0674C13.7434 16.1382 13.8197 16.1956 13.905 16.2362C13.9903 16.2769 14.083 16.2999 14.1774 16.3039C14.3332 16.2961 14.4839 16.2459 14.6132 16.1586L15.6672 15.4559C15.7566 15.4049 15.8324 15.3332 15.8883 15.2468C15.9441 15.1603 15.9784 15.0617 15.9882 14.9593C15.9788 14.8247 15.9358 14.6946 15.8632 14.5809C15.6481 14.1974 15.4661 13.7961 15.3193 13.3816C15.1781 12.8992 15.1143 12.3975 15.1301 11.8952V6.45947C15.1368 4.62167 14.6774 3.25233 13.7517 2.35145C12.8261 1.45056 11.3711 1.00012 9.38695 1.00012C8.50901 1.00156 7.63484 1.11509 6.78565 1.33795C6.06214 1.51118 5.35893 1.7603 4.68772 2.08118C4.50522 2.15241 4.34369 2.26862 4.21814 2.41901C4.12025 2.60584 4.07915 2.81721 4.0999 3.02711V3.83115C4.0999 4.16898 4.21814 4.35816 4.43773 4.35816C4.53151 4.35483 4.62453 4.34008 4.71475 4.31424C4.91492 4.25618 5.11031 4.18277 5.2992 4.09465C5.87838 3.86242 6.47334 3.67163 7.07956 3.52372C7.66852 3.38374 8.27148 3.3112 8.87683 3.30751C10.1606 3.30751 11.0615 3.56539 11.5795 4.08114C12.147 4.59802 12.3936 5.48652 12.3936 6.74325V7.96958C11.736 7.81417 11.0986 7.69255 10.4815 7.60472M12.3936 10.5405C12.4037 11.0273 12.3503 11.5134 12.2349 11.9864C12.1296 12.3799 11.9354 12.7439 11.6673 13.0506C11.2435 13.5395 10.6981 13.9077 10.0863 14.1181C9.53246 14.3135 8.95052 14.4173 8.36332 14.4255C8.04729 14.4476 7.73001 14.4071 7.4297 14.3062C7.12939 14.2053 6.85197 14.0461 6.61336 13.8377C6.39567 13.6001 6.22883 13.3205 6.1231 13.0161C6.01737 12.7117 5.97497 12.3889 5.99851 12.0675C5.9768 11.7048 6.03966 11.3421 6.18213 11.0079C6.32459 10.6738 6.54277 10.3773 6.81943 10.1418C7.36334 9.69251 8.18765 9.46617 9.29911 9.46617C9.82211 9.46725 10.3445 9.5011 10.8633 9.56752C11.3779 9.63274 11.8888 9.72521 12.3936 9.84454V10.5405Z" fill="#262F3E"/>
<path d="M20.7777 15.4254C20.8251 15.6728 20.9423 15.9014 21.1156 16.0842C21.3076 16.206 21.5342 16.2618 21.7608 16.243H23.1899C23.4281 16.2642 23.6665 16.2034 23.8655 16.0707C24.0428 15.8841 24.1605 15.6489 24.2034 15.395L26.7675 4.64864L29.3789 15.3984C29.4218 15.6522 29.5394 15.8875 29.7168 16.0741C29.9156 16.2073 30.1541 16.2681 30.3924 16.2464H31.8214C32.0326 16.2541 32.2411 16.1975 32.4194 16.0842C32.5927 15.9014 32.7099 15.6728 32.7572 15.4254L36.8112 2.51693C36.8596 2.38341 36.8991 2.24686 36.9294 2.10815C36.9486 2.0216 36.9588 1.93329 36.9599 1.84464C36.9677 1.78912 36.9626 1.73252 36.9449 1.67933C36.9271 1.62613 36.8972 1.57779 36.8576 1.53814C36.8179 1.49849 36.7696 1.4686 36.7164 1.45085C36.6632 1.4331 36.6066 1.42797 36.5511 1.43587H35.0004C34.77 1.41531 34.5393 1.47239 34.345 1.59803C34.1746 1.78146 34.0577 2.00816 34.0072 2.25342L31.1188 13.439L28.4871 2.25342C28.4495 2.00376 28.3308 1.77343 28.1492 1.59803C27.9473 1.47271 27.7104 1.41584 27.4736 1.43587H26.1222C25.8855 1.41656 25.6488 1.47337 25.4466 1.59803C25.2735 1.77745 25.1613 2.00672 25.1256 2.25342L22.5615 13.2937L19.7575 2.25342C19.7055 2.00867 19.5889 1.78234 19.4197 1.59803C19.2254 1.47239 18.9947 1.41531 18.7643 1.43587H17.1292C17.0737 1.42797 17.0171 1.4331 16.9639 1.45085C16.9107 1.4686 16.8623 1.49849 16.8227 1.53814C16.783 1.57779 16.7531 1.62613 16.7354 1.67933C16.7176 1.73252 16.7125 1.78912 16.7204 1.84464C16.7416 2.07487 16.7903 2.30172 16.8657 2.5203L20.7777 15.4254Z" fill="#262F3E"/>
<path d="M45.5658 23.5131C39.5678 26.0415 33.1293 27.3595 26.6202 27.3914C17.9092 27.3971 9.34806 25.1249 1.78627 20.8004C1.16466 20.4423 0.708591 21.0774 1.22209 21.5402C8.02806 27.6756 16.8795 31.0489 26.0425 30.9995C32.9005 30.9995 40.8699 28.8441 46.3631 24.7901C47.2718 24.1145 46.4948 23.101 45.5658 23.503" fill="#F8981D"/>
<path d="M42.0963 21.2295C41.6133 21.5673 41.6943 22.0369 42.2349 21.9727C44.0017 21.7598 47.9476 21.297 48.6536 22.1855C49.3597 23.074 47.8699 26.7969 47.2077 28.4523C47.0084 28.9523 47.4375 29.1583 47.8834 28.7901C50.8327 26.3239 51.5995 21.1585 50.9914 20.4119C50.3833 19.6653 45.2483 19.0335 42.093 21.243" fill="#F8981D"/>
<path d="M64.1973 12.7871C64.1702 12.7911 64.1425 12.7887 64.1165 12.78C64.0905 12.7714 64.0669 12.7569 64.0475 12.7375C64.0282 12.7181 64.0136 12.6945 64.005 12.6685C63.9964 12.6425 63.994 12.6149 63.998 12.5878V3.57445C63.994 3.54735 63.9964 3.5197 64.005 3.4937C64.0136 3.46771 64.0282 3.44408 64.0475 3.42472C64.0669 3.40535 64.0905 3.39078 64.1165 3.38217C64.1425 3.37356 64.1702 3.37115 64.1973 3.37513H64.4507C64.479 3.37124 64.5079 3.37351 64.5353 3.38178C64.5626 3.39004 64.5879 3.40411 64.6094 3.42302C64.6309 3.44193 64.648 3.46524 64.6597 3.49137C64.6714 3.5175 64.6773 3.54583 64.677 3.57445L64.731 4.11835C65.0886 3.82211 65.4882 3.58073 65.9168 3.40215C66.2958 3.25374 66.699 3.17699 67.106 3.17581C67.4924 3.16085 67.8769 3.23646 68.2289 3.3966C68.5808 3.55674 68.8904 3.79696 69.133 4.09808C69.6609 4.8325 69.922 5.7253 69.8728 6.62844C69.9225 7.56035 69.6453 8.48038 69.0891 9.22974C68.8385 9.54549 68.517 9.7978 68.1508 9.96625C67.7846 10.1347 67.3838 10.2145 66.981 10.1993C66.15 10.1935 65.3526 9.87088 64.7513 9.2973V12.5878C64.7547 12.6151 64.7518 12.6427 64.7427 12.6687C64.7337 12.6947 64.7188 12.7182 64.6992 12.7375C64.6796 12.7567 64.6558 12.7712 64.6297 12.7798C64.6036 12.7885 64.5758 12.7909 64.5486 12.7871H64.1973ZM66.8999 9.51014C67.2101 9.53113 67.5209 9.47734 67.806 9.3533C68.0911 9.22926 68.3423 9.03859 68.5384 8.79731C68.9055 8.32435 69.0891 7.61828 69.0891 6.67911C69.0891 4.80528 68.3774 3.86836 66.954 3.86836C66.1477 3.89732 65.3745 4.1959 64.7581 4.71631V8.60475C65.0751 8.88113 65.4315 9.10884 65.8155 9.28041C66.1609 9.42562 66.5319 9.50028 66.9067 9.5" fill="#262F3E"/>
<path d="M73.1695 10.1993C72.9048 10.2126 72.64 10.1732 72.3906 10.0833C72.1412 9.99339 71.9122 9.85481 71.7169 9.67561C71.5356 9.49154 71.3943 9.27199 71.3018 9.03073C71.2094 8.78946 71.1678 8.5317 71.1797 8.27361C71.1685 7.98443 71.2236 7.6965 71.3407 7.43185C71.4578 7.1672 71.6338 6.93281 71.8554 6.74662C72.372 6.35108 73.0131 6.15337 73.6628 6.1892C74.3071 6.19734 74.9468 6.29977 75.5614 6.49324V5.39192C75.5815 5.18156 75.5577 4.96931 75.4914 4.76866C75.4251 4.56801 75.3178 4.38334 75.1763 4.2264C74.8064 3.96369 74.354 3.84369 73.9026 3.88857C73.2425 3.89889 72.5882 4.01289 71.9635 4.2264C71.8996 4.25031 71.8323 4.26399 71.7642 4.26694C71.6763 4.26694 71.6324 4.20951 71.6324 4.09464V3.85478C71.6286 3.79675 71.6428 3.73897 71.673 3.68925C71.7046 3.64196 71.7509 3.60636 71.8047 3.5879C72.511 3.31251 73.2628 3.17269 74.0209 3.17574C74.638 3.12652 75.2522 3.30166 75.7506 3.66898C75.9491 3.85875 76.103 4.09023 76.2011 4.3467C76.2993 4.60318 76.3392 4.87825 76.3181 5.15206V9.85129C76.322 9.8785 76.3195 9.90624 76.3109 9.93235C76.3023 9.95846 76.2878 9.98223 76.2685 10.0018C76.2492 10.0214 76.2257 10.0363 76.1997 10.0454C76.1738 10.0544 76.1461 10.0574 76.1188 10.054H75.8384C75.8106 10.057 75.7825 10.0539 75.756 10.0449C75.7295 10.0359 75.7053 10.0213 75.685 10.002C75.6648 9.98268 75.6489 9.9592 75.6387 9.93318C75.6284 9.90716 75.6239 9.87921 75.6256 9.85129L75.5749 9.28035C74.9099 9.85748 74.0634 10.1827 73.1831 10.1993M73.2912 9.52359C73.6631 9.51621 74.0309 9.44537 74.379 9.31413C74.7929 9.16643 75.1894 8.97384 75.5614 8.73982V7.08107C74.9988 6.92712 74.4184 6.84762 73.8351 6.84459C72.5986 6.84459 71.977 7.32093 71.977 8.27699C71.9665 8.44726 71.9911 8.61786 72.0492 8.77824C72.1073 8.93862 72.1977 9.08537 72.3148 9.20941C72.5893 9.43808 72.9415 9.55186 73.2979 9.52697" fill="#262F3E"/>
<path d="M78.5484 10.0506C78.521 10.0552 78.493 10.0532 78.4666 10.0449C78.4401 10.0365 78.416 10.0221 78.3963 10.0026C78.3765 9.98317 78.3616 9.95932 78.3528 9.93302C78.344 9.90672 78.3416 9.87872 78.3457 9.8513V3.5744C78.3423 3.54712 78.3453 3.51942 78.3543 3.49347C78.3633 3.46751 78.3782 3.44398 78.3978 3.42471C78.4174 3.40543 78.4412 3.39093 78.4673 3.38232C78.4934 3.37372 78.5212 3.37124 78.5484 3.37508H78.8018C78.8301 3.37052 78.859 3.37233 78.8865 3.38039C78.914 3.38844 78.9394 3.40253 78.9607 3.42163C78.9821 3.44072 78.9989 3.46435 79.01 3.49078C79.0211 3.51721 79.0261 3.54577 79.0247 3.5744L79.0923 4.34465C79.3685 4.02142 79.7031 3.75322 80.0788 3.55413C80.4224 3.39443 80.7978 3.31474 81.1767 3.32102C81.3186 3.32102 81.4301 3.32102 81.5145 3.32102C81.5422 3.3199 81.5698 3.32474 81.5954 3.33523C81.621 3.34572 81.644 3.3616 81.6629 3.3818C81.6819 3.402 81.6962 3.42604 81.705 3.45228C81.7138 3.47852 81.7168 3.50634 81.7139 3.53386V3.87169C81.7137 3.90939 81.6992 3.94562 81.6733 3.97304C81.6603 3.98796 81.6442 3.9999 81.6261 4.00806C81.608 4.01622 81.5884 4.0204 81.5686 4.02033H81.3693H81.0889C80.716 4.01273 80.3463 4.09013 80.0078 4.24668C79.6572 4.42367 79.3476 4.67226 79.0991 4.9764V9.8513C79.103 9.87839 79.1006 9.90604 79.092 9.93204C79.0834 9.95804 79.0688 9.98166 79.0495 10.001C79.0301 10.0204 79.0065 10.035 78.9805 10.0436C78.9545 10.0522 78.9268 10.0546 78.8997 10.0506H78.5484Z" fill="#262F3E"/>
<path d="M85.2369 10.1215C85.0196 10.1359 84.8016 10.1062 84.5961 10.0343C84.3906 9.96226 84.2018 9.84945 84.041 9.70259C83.8957 9.53769 83.7848 9.34552 83.7146 9.13729C83.6445 8.92906 83.6164 8.70895 83.6322 8.48978V4.04054H82.5849C82.5577 4.04438 82.53 4.0419 82.5039 4.0333C82.4777 4.02469 82.454 4.01019 82.4344 3.99092C82.4148 3.97164 82.3999 3.94811 82.3908 3.92216C82.3818 3.8962 82.3788 3.8685 82.3822 3.84122V3.70271C82.3775 3.64674 82.3918 3.5908 82.4228 3.54393C82.4438 3.52197 82.4689 3.50439 82.4967 3.49222C82.5246 3.48004 82.5545 3.4735 82.5849 3.47299L83.6558 3.38177L83.7673 1.63857C83.7724 1.5826 83.7922 1.52897 83.8248 1.48316C83.8646 1.45079 83.9155 1.43506 83.9666 1.43925H84.2065C84.2335 1.43511 84.2611 1.43744 84.287 1.44605C84.3129 1.45466 84.3364 1.4693 84.3555 1.48877C84.3746 1.50823 84.3889 1.53196 84.397 1.55801C84.4052 1.58405 84.407 1.61166 84.4025 1.63857V3.36488H86.3281C86.3552 3.36091 86.3828 3.36332 86.4088 3.37193C86.4348 3.38054 86.4585 3.39511 86.4778 3.41447C86.4972 3.43384 86.5117 3.45746 86.5204 3.48346C86.529 3.50946 86.5314 3.53711 86.5274 3.5642V3.83109C86.5314 3.85819 86.529 3.88584 86.5204 3.91183C86.5117 3.93783 86.4972 3.96145 86.4778 3.98082C86.4585 4.00018 86.4348 4.01475 86.4088 4.02336C86.3828 4.03197 86.3552 4.03439 86.3281 4.03041H84.4025V8.46275C84.3754 8.73918 84.4592 9.01503 84.6356 9.22963C84.8561 9.40132 85.1345 9.4812 85.4126 9.4526C85.6394 9.45572 85.866 9.43419 86.0882 9.38841L86.318 9.34449C86.3584 9.33132 86.4004 9.32337 86.4429 9.32084C86.5409 9.32084 86.5916 9.3749 86.5916 9.483V9.67895C86.5916 9.83097 86.5409 9.92556 86.4429 9.95935C86.0573 10.0807 85.6546 10.1389 85.2504 10.1316" fill="#262F3E"/>
<path d="M88.1836 10.0506C88.1565 10.0545 88.1289 10.0521 88.1029 10.0435C88.0769 10.0349 88.0532 10.0203 88.0339 10.001C88.0145 9.98159 87.9999 9.95797 87.9913 9.93197C87.9827 9.90598 87.9803 9.87833 87.9843 9.85123V3.57433C87.9803 3.54723 87.9827 3.51958 87.9913 3.49359C87.9999 3.46759 88.0145 3.44397 88.0339 3.4246C88.0532 3.40524 88.0769 3.39067 88.1029 3.38206C88.1289 3.37345 88.1565 3.37103 88.1836 3.37501H88.4505C88.4788 3.37113 88.5077 3.3734 88.5351 3.38166C88.5625 3.38992 88.5878 3.40399 88.6093 3.4229C88.6307 3.44181 88.6479 3.46512 88.6595 3.49125C88.6712 3.51738 88.6771 3.54572 88.6768 3.57433L88.7275 4.14526C89.1482 3.84428 89.6087 3.60324 90.0957 3.42906C90.5419 3.26605 91.0126 3.18036 91.4876 3.17569C91.7571 3.15873 92.0272 3.1967 92.2815 3.28729C92.5359 3.37789 92.7692 3.51922 92.9673 3.70271C93.1501 3.9062 93.2899 4.1446 93.3781 4.40355C93.4664 4.6625 93.5013 4.93663 93.4808 5.20943V9.85123C93.4848 9.87833 93.4824 9.90598 93.4738 9.93197C93.4651 9.95797 93.4506 9.98159 93.4312 10.001C93.4118 10.0203 93.3882 10.0349 93.3622 10.0435C93.3362 10.0521 93.3086 10.0545 93.2815 10.0506H92.9234C92.8963 10.0545 92.8686 10.0521 92.8426 10.0435C92.8166 10.0349 92.793 10.0203 92.7736 10.001C92.7543 9.98159 92.7397 9.95797 92.7311 9.93197C92.7225 9.90598 92.7201 9.87833 92.7241 9.85123V5.51348C92.7604 5.06808 92.641 4.62388 92.3862 4.25675C92.2475 4.11883 92.0805 4.01267 91.8968 3.9456C91.7131 3.87852 91.517 3.85213 91.322 3.86824C90.3959 3.88425 89.4962 4.17983 88.741 4.7162V9.85123C88.745 9.87833 88.7426 9.90598 88.734 9.93197C88.7254 9.95797 88.7108 9.98159 88.6914 10.001C88.6721 10.0203 88.6484 10.0349 88.6225 10.0435C88.5965 10.0521 88.5688 10.0545 88.5417 10.0506H88.1836Z" fill="#262F3E"/>
<path d="M98.3516 10.2499C97.2975 10.2499 96.5036 9.95263 95.9867 9.35467C95.4699 8.75671 95.1895 7.87159 95.1895 6.69256C95.1895 5.5811 95.4563 4.71287 95.9901 4.09802C96.2731 3.7868 96.6218 3.54255 97.011 3.38301C97.4002 3.22347 97.8201 3.15267 98.2401 3.17574C98.5793 3.15248 98.9196 3.2006 99.239 3.31698C99.5585 3.43335 99.85 3.61541 100.095 3.8514C100.553 4.40537 100.783 5.11351 100.737 5.83109C100.735 6.10314 100.709 6.37449 100.659 6.64189C100.655 6.69805 100.629 6.7503 100.586 6.78753C100.544 6.82476 100.489 6.84401 100.433 6.84121H95.9496C95.9496 7.77137 96.1523 8.45717 96.5577 8.8986C96.9631 9.34003 97.579 9.56525 98.4056 9.57426C99.0261 9.5763 99.6415 9.4617 100.22 9.23643C100.296 9.20267 100.377 9.17992 100.46 9.16886C100.478 9.16935 100.496 9.17384 100.512 9.18201C100.529 9.19019 100.543 9.20184 100.554 9.21616C100.581 9.24687 100.596 9.2867 100.595 9.32764V9.52696C100.602 9.5833 100.591 9.64041 100.565 9.69056C100.538 9.74071 100.497 9.78148 100.446 9.80736C99.7903 10.1119 99.0746 10.2654 98.3516 10.2567M99.9833 6.22973C99.9833 6.10474 99.9833 5.95947 99.9833 5.79055C100.021 5.26637 99.854 4.74794 99.5171 4.34464C99.336 4.17171 99.1207 4.03874 98.885 3.95435C98.6493 3.86997 98.3985 3.83604 98.1489 3.85478C96.7547 3.85478 96.0171 4.64305 95.9361 6.2196L99.9833 6.22973Z" fill="#262F3E"/>
<path d="M102.598 10.0505C102.571 10.0545 102.543 10.0521 102.517 10.0435C102.491 10.0348 102.467 10.0203 102.448 10.0009C102.429 9.98155 102.414 9.95792 102.405 9.93193C102.397 9.90593 102.394 9.87828 102.398 9.85118V3.57428C102.394 3.54719 102.397 3.51954 102.405 3.49354C102.414 3.46754 102.429 3.44392 102.448 3.42455C102.467 3.40519 102.491 3.39062 102.517 3.38201C102.543 3.3734 102.571 3.37099 102.598 3.37496H102.851C102.879 3.37041 102.908 3.37222 102.936 3.38027C102.963 3.38833 102.989 3.40241 103.01 3.42151C103.031 3.44061 103.048 3.46424 103.059 3.49066C103.07 3.51709 103.075 3.54566 103.074 3.57428L103.142 4.34454C103.417 4.01953 103.753 3.75107 104.131 3.55401C104.474 3.39426 104.848 3.31454 105.226 3.32091C105.368 3.32091 105.483 3.32091 105.564 3.32091C105.591 3.31978 105.619 3.32463 105.645 3.33512C105.67 3.3456 105.693 3.36149 105.712 3.38169C105.731 3.40188 105.745 3.42592 105.754 3.45216C105.763 3.4784 105.766 3.50623 105.763 3.53374V3.87157C105.763 3.90928 105.748 3.9455 105.723 3.97292C105.71 3.98784 105.693 3.99979 105.675 4.00794C105.657 4.0161 105.638 4.02029 105.618 4.02022H105.419H105.138C104.765 4.01261 104.396 4.09002 104.057 4.24657C103.706 4.42356 103.397 4.67215 103.148 4.97628V9.85118C103.152 9.87828 103.15 9.90593 103.141 9.93193C103.133 9.95792 103.118 9.98155 103.099 10.0009C103.079 10.0203 103.056 10.0348 103.03 10.0435C103.004 10.0521 102.976 10.0545 102.949 10.0505H102.598Z" fill="#262F3E"/>
<path d="M64.1973 24.7969C64.1702 24.8009 64.1425 24.7984 64.1165 24.7898C64.0905 24.7812 64.0669 24.7667 64.0475 24.7473C64.0282 24.7279 64.0136 24.7043 64.005 24.6783C63.9964 24.6523 63.994 24.6247 63.998 24.5976V18.3207C63.994 18.2936 63.9964 18.2659 64.005 18.2399C64.0136 18.2139 64.0282 18.1903 64.0475 18.1709C64.0669 18.1516 64.0905 18.137 64.1165 18.1284C64.1425 18.1198 64.1702 18.1174 64.1973 18.1213H64.4642C64.4925 18.1175 64.5214 18.1197 64.5488 18.128C64.5762 18.1363 64.6015 18.1503 64.6229 18.1692C64.6444 18.1881 64.6616 18.2114 64.6732 18.2376C64.6849 18.2637 64.6908 18.292 64.6905 18.3207L64.7446 18.8916C65.159 18.5895 65.6139 18.3472 66.0959 18.172C66.5436 18.0103 67.0152 17.9247 67.4911 17.9186C67.7596 17.9005 68.029 17.9366 68.2832 18.0248C68.5375 18.113 68.7713 18.2516 68.9708 18.4321C69.1523 18.6364 69.2909 18.875 69.3785 19.1338C69.4661 19.3926 69.501 19.6664 69.481 19.9389V24.5976C69.4849 24.6247 69.4825 24.6523 69.4739 24.6783C69.4653 24.7043 69.4507 24.7279 69.4314 24.7473C69.412 24.7667 69.3884 24.7812 69.3624 24.7898C69.3364 24.7984 69.3087 24.8009 69.2816 24.7969H68.9438C68.9165 24.8015 68.8884 24.7995 68.862 24.7911C68.8355 24.7828 68.8114 24.7683 68.7917 24.7489C68.7719 24.7294 68.757 24.7056 68.7482 24.6793C68.7394 24.653 68.737 24.625 68.7411 24.5976V20.2564C68.7786 19.8109 68.6591 19.3663 68.4033 18.9997C68.2665 18.8601 68.1003 18.7529 67.9168 18.6856C67.7332 18.6184 67.5371 18.593 67.3425 18.6112C66.4128 18.6245 65.5091 18.9203 64.7513 19.4591V24.5942C64.7559 24.6211 64.7541 24.6487 64.7459 24.6747C64.7377 24.7008 64.7235 24.7245 64.7044 24.744C64.6852 24.7634 64.6617 24.7781 64.6358 24.7867C64.6099 24.7953 64.5824 24.7976 64.5554 24.7935L64.1973 24.7969Z" fill="#262F3E"/>
<path d="M74.3652 24.986C73.3112 24.986 72.5229 24.6876 72.0004 24.0908C71.4779 23.4939 71.2121 22.6066 71.2031 21.4287C71.2031 20.3138 71.47 19.449 72.0038 18.8341C72.2871 18.5224 72.6364 18.2779 73.0262 18.1184C73.4161 17.9588 73.8366 17.8883 74.2571 17.9118C74.5959 17.888 74.9358 17.9359 75.2548 18.0523C75.5738 18.1687 75.8647 18.3511 76.1084 18.5875C76.5721 19.1489 76.7997 19.8683 76.7436 20.5942C76.7501 20.8612 76.7308 21.1282 76.6861 21.3915C76.6848 21.4195 76.678 21.4469 76.6661 21.4722C76.6542 21.4975 76.6374 21.5203 76.6167 21.5391C76.596 21.5579 76.5718 21.5725 76.5454 21.5819C76.5191 21.5914 76.4911 21.5956 76.4632 21.5942H71.9632C71.9632 22.5199 72.1727 23.2057 72.5713 23.6482C72.97 24.0908 73.5848 24.3239 74.4193 24.3239C75.0408 24.3242 75.657 24.2097 76.2368 23.986C76.3124 23.9502 76.3935 23.9274 76.4767 23.9185C76.4942 23.9183 76.5116 23.9222 76.5274 23.9298C76.5432 23.9375 76.557 23.9486 76.5679 23.9624C76.5947 23.9946 76.609 24.0354 76.6084 24.0773V24.2766C76.6147 24.3325 76.6043 24.3889 76.5784 24.4389C76.5525 24.4888 76.5124 24.5299 76.4632 24.557C75.8039 24.8525 75.0876 24.999 74.3652 24.986M75.9969 20.9726C75.9969 20.851 76.0138 20.7057 76.0138 20.5368C76.0502 20.0118 75.8833 19.4929 75.5476 19.0875C75.3678 18.9179 75.1551 18.787 74.9227 18.7027C74.6903 18.6185 74.4431 18.5827 74.1963 18.5976C72.7977 18.5976 72.059 19.3859 71.9801 20.9625L75.9969 20.9726Z" fill="#262F3E"/>
<path d="M80.469 24.8779C80.2522 24.8927 80.0347 24.8631 79.8296 24.7911C79.6246 24.7191 79.4364 24.6061 79.2764 24.459C79.1299 24.2942 79.0179 24.1016 78.9471 23.8927C78.8763 23.6838 78.8481 23.4628 78.8643 23.2428V18.7835H77.8136C77.7867 18.7876 77.7591 18.7853 77.7332 18.7767C77.7073 18.768 77.6838 18.7534 77.6647 18.7339C77.6455 18.7145 77.6313 18.6907 77.6231 18.6647C77.615 18.6387 77.6131 18.611 77.6177 18.5841V18.4524C77.6125 18.3968 77.6255 18.3411 77.6549 18.2936C77.6968 18.251 77.7539 18.2267 77.8136 18.226L78.8913 18.1348L78.9859 16.3815C78.9878 16.3259 79.008 16.2725 79.0433 16.2295C79.0621 16.2128 79.0841 16.2 79.1078 16.1919C79.1316 16.1838 79.1568 16.1804 79.1818 16.1822H79.4217C79.4488 16.1782 79.4765 16.1806 79.5025 16.1892C79.5285 16.1978 79.5521 16.2124 79.5714 16.2318C79.5908 16.2511 79.6054 16.2747 79.614 16.3007C79.6226 16.3267 79.625 16.3544 79.621 16.3815V18.1213H81.5433C81.5701 18.1175 81.5974 18.1198 81.6231 18.1283C81.6488 18.1367 81.6722 18.1509 81.6915 18.1699C81.7108 18.1889 81.7254 18.212 81.7343 18.2376C81.7432 18.2632 81.746 18.2904 81.7426 18.3173V18.5841C81.7466 18.6112 81.7442 18.6389 81.7356 18.6649C81.727 18.6909 81.7124 18.7145 81.693 18.7339C81.6737 18.7532 81.65 18.7678 81.624 18.7764C81.598 18.785 81.5704 18.7874 81.5433 18.7835H79.621V23.2057C79.5934 23.4816 79.676 23.7573 79.8508 23.9725C80.0722 24.1453 80.3516 24.2264 80.6311 24.1989C80.8582 24.2028 81.085 24.1801 81.3068 24.1313L81.5365 24.0874C81.5786 24.0765 81.6216 24.0698 81.6649 24.0671C81.7629 24.0671 81.8102 24.1212 81.8102 24.2259V24.4252C81.8102 24.5773 81.7629 24.6685 81.6649 24.7023C81.2787 24.8263 80.8746 24.8856 80.469 24.8779" fill="#262F3E"/>
<path d="M84.7983 24.797C84.7413 24.799 84.6853 24.7818 84.6393 24.7481C84.5934 24.7143 84.5601 24.6661 84.5449 24.6111L82.4369 18.439C82.4087 18.3757 82.3905 18.3085 82.3828 18.2397C82.3828 18.162 82.4369 18.1214 82.5416 18.1214H82.9673C83.0193 18.1186 83.0706 18.1344 83.1121 18.166C83.1536 18.1975 83.1825 18.2428 83.1936 18.2937L85.0111 23.922L86.6192 18.3038C86.6338 18.2495 86.6666 18.2017 86.712 18.1685C86.7575 18.1353 86.813 18.1187 86.8692 18.1214H87.3591C87.4157 18.1186 87.4717 18.1351 87.5177 18.1682C87.5638 18.2014 87.5972 18.2492 87.6124 18.3038L89.2036 23.9726L91.0651 18.3072C91.0755 18.2566 91.1037 18.2114 91.1446 18.1798C91.1855 18.1482 91.2364 18.1322 91.288 18.1349H91.6867C91.7948 18.1349 91.8455 18.1755 91.8455 18.2532C91.8378 18.3216 91.8208 18.3887 91.7948 18.4525L89.6293 24.6247C89.6147 24.6799 89.5815 24.7285 89.5354 24.7623C89.4893 24.7962 89.433 24.8131 89.3759 24.8105H88.9401C88.883 24.8131 88.8267 24.7962 88.7806 24.7623C88.7345 24.7285 88.7014 24.6799 88.6867 24.6247L87.082 18.9829L85.4875 24.6247C85.4735 24.6797 85.4411 24.7282 85.3955 24.762C85.35 24.7959 85.2942 24.813 85.2375 24.8105L84.7983 24.797Z" fill="#262F3E"/>
<path d="M95.8159 24.9861C95.3916 25.0098 94.9674 24.938 94.5745 24.7761C94.1816 24.6141 93.83 24.3661 93.5457 24.0503C93.0052 23.4253 92.7383 22.5571 92.7383 21.4422C92.7383 20.3274 93.0052 19.4591 93.5457 18.8409C94.1515 18.2459 94.9668 17.9125 95.8159 17.9125C96.6651 17.9125 97.4803 18.2459 98.0862 18.8409C98.6267 19.4591 98.8936 20.3274 98.8936 21.4422C98.8936 22.5571 98.6267 23.4253 98.0862 24.0503C97.8018 24.3661 97.4503 24.6141 97.0574 24.7761C96.6645 24.938 96.2402 25.0098 95.8159 24.9861M95.8159 24.3104C97.3452 24.3104 98.1109 23.3588 98.1132 21.4557C98.1154 19.5526 97.3497 18.6056 95.8159 18.6146C94.2844 18.6146 93.5187 19.5616 93.5187 21.4557C93.5187 23.3498 94.2844 24.3014 95.8159 24.3104Z" fill="#262F3E"/>
<path d="M100.818 24.7968C100.791 24.8008 100.764 24.7984 100.738 24.7898C100.712 24.7811 100.688 24.7666 100.669 24.7472C100.649 24.7278 100.635 24.7042 100.626 24.6782C100.617 24.6522 100.615 24.6246 100.619 24.5975V18.3206C100.615 18.2935 100.617 18.2658 100.626 18.2398C100.635 18.2138 100.649 18.1902 100.669 18.1709C100.688 18.1515 100.712 18.1369 100.738 18.1283C100.764 18.1197 100.791 18.1173 100.818 18.1213H101.072C101.1 18.1174 101.129 18.1197 101.156 18.1279C101.184 18.1362 101.209 18.1502 101.231 18.1692C101.252 18.1881 101.269 18.2114 101.281 18.2375C101.292 18.2636 101.298 18.292 101.298 18.3206L101.362 19.0908C101.637 18.7659 101.972 18.4974 102.349 18.3003C102.691 18.1409 103.066 18.0612 103.443 18.0672C103.556 18.0613 103.669 18.0613 103.781 18.0672C103.809 18.0655 103.837 18.0699 103.863 18.0802C103.889 18.0905 103.912 18.1064 103.931 18.1267C103.95 18.147 103.964 18.1713 103.973 18.1978C103.981 18.2243 103.984 18.2524 103.98 18.28V18.6179C103.981 18.6361 103.977 18.6542 103.97 18.671C103.963 18.6878 103.953 18.7031 103.94 18.7158C103.928 18.7324 103.912 18.7457 103.894 18.7545C103.876 18.7634 103.855 18.7675 103.835 18.7665H103.636C103.575 18.7665 103.48 18.7665 103.359 18.7665C102.985 18.7602 102.614 18.8375 102.274 18.9929C101.926 19.173 101.617 19.4211 101.366 19.7226V24.5975C101.37 24.6246 101.367 24.6522 101.359 24.6782C101.35 24.7042 101.335 24.7278 101.316 24.7472C101.297 24.7666 101.273 24.7811 101.247 24.7898C101.221 24.7984 101.193 24.8008 101.166 24.7968H100.818Z" fill="#262F3E"/>
<path d="M105.388 24.7968C105.361 24.8014 105.333 24.7994 105.306 24.7911C105.28 24.7827 105.256 24.7682 105.236 24.7488C105.216 24.7294 105.201 24.7055 105.193 24.6792C105.184 24.6529 105.181 24.6249 105.186 24.5975V15.1889C105.182 15.1614 105.184 15.1333 105.193 15.1069C105.202 15.0805 105.216 15.0565 105.236 15.0368C105.256 15.0171 105.28 15.0023 105.306 14.9935C105.333 14.9848 105.361 14.9822 105.388 14.9862H105.746C105.774 14.9828 105.801 14.9858 105.827 14.9948C105.853 15.0038 105.877 15.0187 105.896 15.0383C105.915 15.0579 105.93 15.0817 105.938 15.1078C105.947 15.1339 105.949 15.1617 105.946 15.1889V21.0942L109.131 18.253C109.175 18.2088 109.228 18.1742 109.286 18.1516C109.345 18.1289 109.407 18.1186 109.469 18.1213H109.946C110.05 18.1213 110.108 18.1618 110.108 18.2395C110.108 18.3172 110.057 18.351 109.959 18.4388L106.74 21.2699L110.216 24.4826C110.294 24.5536 110.334 24.611 110.334 24.6549C110.334 24.6988 110.283 24.7867 110.175 24.7867H109.604C109.495 24.7849 109.39 24.7428 109.31 24.6684L105.932 21.5232V24.5874C105.936 24.6144 105.934 24.6421 105.925 24.6681C105.916 24.6941 105.902 24.7177 105.883 24.7371C105.863 24.7564 105.84 24.771 105.814 24.7796C105.788 24.7882 105.76 24.7907 105.733 24.7867L105.388 24.7968Z" fill="#262F3E"/>
</g>
<defs>
<clipPath id="clip0_2964_27013">
<rect width="110" height="30" fill="white" transform="translate(0.271484 0.5)"/>
</clipPath>
</defs>
</svg>
