<svg width="39" height="30" viewBox="0 0 39 30" fill="none" xmlns="http://www.w3.org/2000/svg">
<path fill-rule="evenodd" clip-rule="evenodd" d="M36.9692 28.2517V25.3977H36.3071V27.0532C36.0698 26.7479 35.7002 26.5754 35.3138 26.5896C34.3995 26.5896 33.6583 27.3308 33.6583 28.2451C33.6583 29.1594 34.3995 29.9005 35.3138 29.9005C35.7002 29.9148 36.0698 29.7423 36.3071 29.437V29.8211H36.9692V28.2517ZM16.4434 26.669H17.5757L17.5824 27.2981H16.4566V28.7416C16.4566 29.0595 16.5825 29.2714 16.9136 29.2714C17.1285 29.2642 17.3381 29.2027 17.5228 29.0926L17.7214 29.6819C17.4633 29.843 17.1649 29.9279 16.8606 29.9269C16.0461 29.9269 15.7614 29.4899 15.7614 28.7549V27.2981H15.119V26.669H15.7481V25.7088H16.4434V26.669ZM7.28886 27.8478V29.8343L6.59357 29.8476V28.0862C6.59357 27.5498 6.36843 27.2518 5.89828 27.2518C5.67776 27.2411 5.46385 27.3288 5.31426 27.4912C5.16467 27.6535 5.09481 27.8739 5.12353 28.0928V29.8476H4.42824V28.0862C4.42824 27.5498 4.19648 27.2518 3.73957 27.2518C3.5187 27.2399 3.30405 27.3272 3.15418 27.4899C3.00431 27.6526 2.93488 27.8737 2.96482 28.0928V29.8343H2.26953V26.6691H2.9582V27.0598C3.16201 26.7498 3.51473 26.5709 3.88525 26.5897C4.3108 26.5714 4.71225 26.7873 4.9315 27.1525C5.17198 26.7761 5.59826 26.5604 6.04396 26.5897C6.38217 26.5698 6.71256 26.6965 6.95085 26.9373C7.18914 27.1781 7.31228 27.5098 7.28886 27.8478ZM23.4521 26.5897C23.11 26.5796 22.7899 26.7575 22.6177 27.0532V26.6691H21.9357V29.8343H22.6243V28.0597C22.6243 27.5366 22.8495 27.2452 23.2865 27.2452C23.4338 27.2432 23.5801 27.2702 23.7169 27.3247L23.9288 26.6625C23.7716 26.6062 23.6059 26.5771 23.4388 26.5764L23.4521 26.5897ZM13.2804 26.5895C13.7336 26.5739 14.1818 26.6888 14.5716 26.9206L14.267 27.4768C13.9646 27.3028 13.6226 27.2094 13.2737 27.2053C12.8963 27.2053 12.6712 27.3642 12.6712 27.5761C12.6712 27.788 12.9095 27.8476 13.2075 27.8874L13.5386 27.9337C14.2273 28.033 14.6445 28.278 14.6445 28.8806C14.6445 29.4832 14.1147 29.9136 13.2009 29.9136C12.7118 29.9271 12.2313 29.7832 11.8302 29.5031L12.1613 28.9667C12.4651 29.1921 12.836 29.3087 13.2141 29.2978C13.6843 29.2978 13.9359 29.1587 13.9359 28.9137C13.9359 28.7349 13.7571 28.6356 13.3797 28.5826L13.0486 28.5363C12.3401 28.437 11.956 28.1191 11.956 27.6026C11.956 26.9735 12.4791 26.5895 13.2804 26.5895ZM33.0146 26.5897C32.6725 26.5796 32.3524 26.7575 32.1802 27.0532V26.6691H31.4982V29.8343H32.1868V28.0597C32.1868 27.5366 32.412 27.2452 32.849 27.2452C32.9963 27.2432 33.1426 27.2702 33.2794 27.3247L33.4913 26.6625C33.3341 26.6062 33.1684 26.5771 33.0013 26.5764L33.0146 26.5897ZM24.6224 29.446C24.301 29.1309 24.1272 28.695 24.1438 28.2452V28.232C24.1272 27.7822 24.301 27.3463 24.6224 27.0312C24.9437 26.7161 25.383 26.5511 25.8324 26.5765C26.2458 26.5555 26.6522 26.6902 26.9713 26.954L26.6402 27.5102C26.4022 27.3287 26.1119 27.2288 25.8125 27.2255C25.2846 27.2682 24.878 27.709 24.878 28.2386C24.878 28.7682 25.2846 29.209 25.8125 29.2517C26.1119 29.2484 26.4022 29.1486 26.6402 28.967L26.9713 29.5232C26.6522 29.7871 26.2458 29.9217 25.8324 29.9007C25.383 29.9262 24.9437 29.7611 24.6224 29.446ZM30.5914 28.2449V26.6689H29.9028V27.053C29.6655 26.7477 29.2959 26.5752 28.9095 26.5894C27.9952 26.5894 27.254 27.3306 27.254 28.2449C27.254 29.1592 27.9952 29.9003 28.9095 29.9003C29.2959 29.9146 29.6655 29.7421 29.9028 29.4368V29.8209H30.5914V28.2449ZM29.0187 27.3452C28.4986 27.3256 28.0582 27.7255 28.0276 28.245C28.01 28.5095 28.1037 28.7693 28.2861 28.9617C28.4684 29.154 28.7228 29.2615 28.9878 29.2582C29.5083 29.2555 29.9311 28.8372 29.9395 28.3168C29.948 27.7964 29.5388 27.3647 29.0187 27.3452ZM19.7166 26.5895C18.8023 26.6023 18.0715 27.3538 18.0843 28.2681C18.0971 29.1824 18.8486 29.9132 19.7629 29.9004C20.2393 29.9248 20.7077 29.7714 21.0773 29.47L20.7463 28.9601C20.4848 29.1698 20.1609 29.2863 19.8258 29.2912C19.3525 29.3319 18.9327 28.9884 18.8789 28.5164H21.2296V28.2516C21.2296 27.2583 20.6138 26.5961 19.7265 26.5961L19.7166 26.5895ZM20.2793 27.4235C20.1291 27.2794 19.9277 27.201 19.7196 27.2054H19.7063C19.2638 27.1903 18.8903 27.5315 18.8654 27.9736H20.5208C20.5165 27.7654 20.4296 27.5676 20.2793 27.4235ZM38.2459 29.3973C38.2084 29.3825 38.1685 29.3747 38.1282 29.3742H38.13C38.0837 29.3723 38.0374 29.3802 37.9943 29.3973C37.9563 29.4129 37.9215 29.4353 37.8917 29.4636C37.8626 29.4921 37.839 29.5258 37.8221 29.5629C37.7886 29.6411 37.7886 29.7297 37.8221 29.8079C37.8759 29.9242 37.992 29.999 38.1201 29.9999C38.1634 30 38.2063 29.9909 38.2459 29.9734C38.284 29.9579 38.3188 29.9355 38.3486 29.9072C38.3777 29.8787 38.4012 29.845 38.4181 29.8079C38.452 29.7297 38.452 29.641 38.4181 29.5629C38.4012 29.5258 38.3777 29.4921 38.3486 29.4636C38.3188 29.4353 38.284 29.4129 38.2459 29.3973ZM38.1198 29.9336C38.1519 29.9334 38.1836 29.9266 38.213 29.9137C38.2415 29.901 38.2673 29.883 38.2891 29.8607C38.375 29.7671 38.375 29.6233 38.2891 29.5296C38.2673 29.5073 38.2415 29.4893 38.213 29.4767C38.1827 29.4635 38.15 29.4567 38.117 29.4568C38.0839 29.457 38.0513 29.4637 38.0209 29.4767C37.9912 29.4889 37.9642 29.5069 37.9415 29.5296C37.8556 29.6233 37.8556 29.7671 37.9415 29.8607C37.9642 29.8834 37.9912 29.9014 38.0209 29.9137C38.0543 29.9281 38.0905 29.9349 38.1269 29.9336H38.1198ZM38.2233 29.5659C38.1986 29.5473 38.1681 29.538 38.1372 29.5395L37.9982 29.5428V29.8341H38.0611V29.7249H38.0909L38.1803 29.8341H38.2564L38.1604 29.7249C38.1863 29.723 38.2108 29.7125 38.2299 29.6951C38.2457 29.6793 38.2541 29.6577 38.2531 29.6355C38.255 29.6089 38.2439 29.583 38.2233 29.5659ZM38.0683 29.5957V29.6752H38.1412C38.1541 29.6791 38.1679 29.6791 38.1809 29.6752C38.1856 29.6658 38.1856 29.6548 38.1809 29.6454C38.1856 29.636 38.1856 29.625 38.1809 29.6156C38.1679 29.6118 38.1541 29.6118 38.1412 29.6156L38.0683 29.5957ZM35.4152 27.3519C34.8951 27.3324 34.4547 27.7322 34.4241 28.2518C34.4065 28.5162 34.5002 28.776 34.6825 28.9684C34.8649 29.1608 35.1192 29.2683 35.3843 29.2649C35.9047 29.2622 36.3276 28.8439 36.336 28.3235C36.3444 27.8031 35.9353 27.3714 35.4152 27.3519ZM11.1715 28.2515V26.6689H10.4828V27.053C10.2456 26.7477 9.87595 26.5752 9.48957 26.5894C8.57529 26.5894 7.83412 27.3306 7.83412 28.2449C7.83412 29.1592 8.57529 29.9003 9.48957 29.9003C9.87595 29.9146 10.2456 29.7421 10.4828 29.4368V29.8209H11.1715V28.2515ZM9.59955 27.3519C9.07942 27.3324 8.63909 27.7322 8.60847 28.2518H8.60184C8.58417 28.5174 8.67873 28.7783 8.86252 28.9709C9.04631 29.1635 9.30246 29.2701 9.56863 29.2649C10.0891 29.2622 10.512 28.8439 10.5204 28.3235C10.5288 27.8031 10.1197 27.3714 9.59955 27.3519Z" fill="#231F20"/>
<path d="M14.3438 2.54932H24.7731V21.2923H14.3438V2.54932Z" fill="#FF5F00"/>
<path d="M15.0052 11.9226C15.0013 8.2645 16.6801 4.80794 19.5577 2.54939C14.6707 -1.29124 7.65286 -0.731818 3.43605 3.83451C-0.780766 8.40084 -0.780766 15.441 3.43605 20.0073C7.65286 24.5736 14.6707 25.133 19.5577 21.2924C16.6811 19.0346 15.0023 15.5795 15.0052 11.9226V11.9226Z" fill="#EB001B"/>
<path d="M38.8407 11.9224C38.8406 16.4859 36.2348 20.6488 32.1301 22.6431C28.0253 24.6373 23.1422 24.1128 19.5547 21.2922C22.4301 19.0325 24.1089 15.5778 24.1089 11.9207C24.1089 8.26364 22.4301 4.80896 19.5547 2.54922C23.1422 -0.271307 28.0253 -0.795834 32.1301 1.1984C36.2348 3.19264 38.8406 7.35553 38.8407 11.9191V11.9224Z" fill="#F79E1B"/>
</svg>
