<svg width="61" height="31" viewBox="0 0 61 31" fill="none" xmlns="http://www.w3.org/2000/svg">
<path d="M26.7003 25.1384H21.8398L24.8799 6.34094H29.74L26.7003 25.1384Z" fill="#00579F"/>
<path d="M44.3202 6.80028C43.3615 6.41994 41.8409 6 39.9607 6C35.1609 6 31.7809 8.55951 31.7602 12.2188C31.7203 14.9187 34.1802 16.4183 36.0199 17.3185C37.9004 18.2384 38.5396 18.8388 38.5396 19.6587C38.5205 20.918 37.0201 21.4985 35.6207 21.4985C33.6802 21.4985 32.6405 21.1992 31.0604 20.4986L30.4204 20.1983L29.7402 24.4179C30.8802 24.9372 32.9804 25.3981 35.1609 25.4183C40.2608 25.4183 43.581 22.8984 43.6203 18.9988C43.6398 16.8589 42.3409 15.2193 39.5405 13.8795C37.8406 13.0194 36.7995 12.4395 36.7995 11.5594C36.8194 10.7594 37.68 9.94 39.599 9.94C41.1791 9.89987 42.3401 10.2797 43.2195 10.6598L43.6592 10.8594L44.3202 6.80028V6.80028V6.80028Z" fill="#00579F"/>
<path fill-rule="evenodd" clip-rule="evenodd" d="M53.0177 6.34094H56.7773L60.6984 25.1381H56.1981C56.1981 25.1381 55.7577 22.9783 55.6182 22.3184H49.3778C49.1973 22.818 48.3577 25.1381 48.3577 25.1381H43.2578L50.4773 7.90057C50.9776 6.68062 51.8584 6.34094 53.0177 6.34094ZM52.7198 13.2196C52.7198 13.2196 51.1796 17.399 50.7793 18.4789H54.8192C54.6194 17.5391 53.6989 13.0396 53.6989 13.0396L53.3593 11.4199C53.2162 11.837 53.0094 12.4104 52.8699 12.7972C52.7753 13.0594 52.7116 13.2358 52.7198 13.2196Z" fill="#00579F"/>
<path d="M17.7792 6.34094L13.0193 19.159L12.4992 16.5593C11.6191 13.5597 8.85922 10.3006 5.7793 8.68012L10.1392 25.1184H15.279L22.9187 6.34094H17.7792V6.34094V6.34094Z" fill="#00579F"/>
<path d="M8.59916 6.34094H0.77922L0.699219 6.72075C6.79926 8.28064 10.8392 12.0407 12.499 16.5601L10.7991 7.92104C10.5192 6.72048 9.65911 6.38054 8.59916 6.34094V6.34094Z" fill="#FAA61A"/>
</svg>
